<?xml version="1.0" encoding="utf-8"?>
<!-- Generator: Adobe Illustrator 16.0.0, SVG Export Plug-In . SVG Version: 6.00 Build 0)  -->
<!DOCTYPE svg PUBLIC "-//W3C//DTD SVG 1.1//EN" "http://www.w3.org/Graphics/SVG/1.1/DTD/svg11.dtd">
<svg version="1.1" id="Layer_1" xmlns="http://www.w3.org/2000/svg" xmlns:xlink="http://www.w3.org/1999/xlink" x="0px" y="0px"
	 width="1000px" height="1000px" viewBox="0 0 1000 1000" enable-background="new 0 0 1000 1000" xml:space="preserve">
<rect width="1000" height="1000"/>
<g>
	<g>
		<path fill="#FFFFFF" d="M266.485,525.046h-95.407l45.112-49.756h59.267c2.006,0,3.77,0.374,5.321,1.137
			c1.551,0.789,2.327,2.192,2.327,4.239c0,3.088-1.003,5.229-2.996,6.404c-2.006,1.177-4.305,1.779-6.9,1.779h-33.79l-19.91,22.022
			h49.368c5.79,0,8.677,1.938,8.677,5.843c0,2.674-0.896,4.719-2.701,6.163C273.077,524.322,270.283,525.046,266.485,525.046z"/>
		<path fill="#FFFFFF" d="M356.716,488.995c0,11.768-2.621,22.718-7.849,32.896c-5.228,10.136-12.354,19-21.367,26.529
			c-9.039,7.553-19.549,13.491-31.53,17.851c-12.008,4.358-24.778,6.523-38.336,6.523h-94.805l19.258-21.274h79.745
			c9.587,0,17.383-0.987,23.374-2.979c5.99-2.02,10.697-4.628,14.16-7.877c3.437-3.223,5.777-6.874,7.033-10.925
			c1.243-4.063,1.858-8.197,1.858-12.395c0-5.04-1.162-9.159-3.502-12.329c-2.34-3.197-5.323-5.348-8.919-6.471
			c2.206-0.723,4.359-1.779,6.444-3.156c2.1-1.391,3.999-3.169,5.683-5.322c1.712-2.14,3.089-4.666,4.118-7.541
			c1.07-2.876,1.578-6.179,1.578-9.868c0-8.01-3.075-14.027-9.212-18.093c-6.138-4.052-14.655-6.083-25.539-6.083h-94.604
			l19.213-21.274h79.106c11.153,0,21.261,1.538,30.381,4.56c9.092,3.049,16.888,7.301,23.386,12.757
			c6.473,5.428,11.487,11.927,15.017,19.455C354.952,471.533,356.716,479.89,356.716,488.995z"/>
	</g>
	<g>
		<g>
			<path fill="#FFFFFF" d="M374.584,534.127v-10.698h38.743c3.318,0,6.027-0.674,8.13-2.022c2.102-1.348,3.153-3.369,3.153-6.065
				c0-2.526-0.775-4.464-2.323-5.813c-1.549-1.348-3.816-2.021-6.803-2.021h-26.63v-9.014h25.884c2.987,0,5.198-0.561,6.637-1.685
				c1.438-1.123,2.157-3.033,2.157-5.729c0-2.864-0.941-4.844-2.821-5.939c-1.881-1.095-4.563-1.643-8.047-1.643h-37.831v-10.614
				h39.904c2.931,0,5.585,0.337,7.964,1.011c2.377,0.674,4.424,1.671,6.139,2.99c1.713,1.32,3.028,2.978,3.94,4.97
				c0.913,1.994,1.369,4.283,1.369,6.866c0,3.875-0.817,6.838-2.447,8.888c-1.632,2.05-3.582,3.44-5.849,4.169
				c2.765,0.899,5.032,2.527,6.803,4.886c1.77,2.359,2.655,5.337,2.655,8.93c0,2.81-0.456,5.35-1.369,7.624
				s-2.213,4.212-3.899,5.813c-1.688,1.601-3.733,2.852-6.139,3.749c-2.406,0.898-5.075,1.348-8.006,1.348H374.584z"/>
			<path fill="#FFFFFF" d="M444.603,534.127v-61.243h34.927c4.258,0,8.185,0.73,11.78,2.19c3.595,1.461,6.691,3.511,9.292,6.149
				c2.6,2.641,4.631,5.8,6.098,9.478c1.465,3.679,2.199,7.737,2.199,12.173c0,4.437-0.734,8.564-2.199,12.383
				c-1.467,3.82-3.498,7.118-6.098,9.898s-5.697,4.971-9.292,6.571c-3.596,1.601-7.522,2.4-11.78,2.4H444.603z M479.529,523.429
				c2.709,0,5.212-0.506,7.508-1.517c2.294-1.011,4.285-2.401,5.973-4.17c1.687-1.77,3-3.889,3.94-6.36
				c0.94-2.471,1.411-5.139,1.411-8.003c0-2.864-0.471-5.518-1.411-7.96c-0.941-2.443-2.254-4.535-3.94-6.276
				c-1.688-1.74-3.679-3.103-5.973-4.086c-2.296-0.982-4.799-1.474-7.508-1.474h-24.474v39.846H479.529z"/>
			<path fill="#FFFFFF" d="M572.363,534.127l-9.043-15.416h-28.539l4.979-8.677h18.5l-13.439-22.914l-27.377,47.006h-12.029
				l34.678-58.631c0.607-1.066,1.328-1.909,2.156-2.527c0.83-0.617,1.826-0.927,2.986-0.927c1.162,0,2.143,0.31,2.945,0.927
				c0.801,0.619,1.508,1.461,2.115,2.527l34.762,58.631H572.363z"/>
			<path fill="#FFFFFF" d="M595.594,534.127c-1.605,0-3.002-0.463-4.189-1.39c-1.191-0.927-1.785-2.288-1.785-4.086
				c0-1.571,0.719-3.088,2.158-4.549l40.07-41.025h-41.48v-10.193h52.762c1.549,0,2.932,0.463,4.148,1.39s1.826,2.289,1.826,4.086
				c0,1.573-0.721,3.089-2.158,4.549l-40.07,41.025h41.979v10.193H595.594z"/>
			<path fill="#FFFFFF" d="M662.127,534.127c-1.605,0-3.002-0.463-4.189-1.39c-1.191-0.927-1.785-2.288-1.785-4.086
				c0-1.571,0.719-3.088,2.158-4.549l40.07-41.025H656.9v-10.193h52.762c1.549,0,2.932,0.463,4.148,1.39s1.826,2.289,1.826,4.086
				c0,1.573-0.721,3.089-2.158,4.549l-40.07,41.025h41.979v10.193H662.127z"/>
			<path fill="#FFFFFF" d="M724.594,534.127v-61.243h10.537v50.544h40.566v10.698H724.594z"/>
			<path fill="#FFFFFF" d="M783.246,534.127v-61.243h53.842v10.698h-43.389v39.846h43.473v10.698H783.246z M801.414,507.507v-9.014
				h33.434v9.014H801.414z"/>
		</g>
	</g>
</g>
</svg>
