<svg width="676" height="146" viewBox="0 0 676 146" fill="" xmlns="http://www.w3.org/2000/svg">
<path d="M104.485 98.0461H9.07812L54.1901 48.29H113.457C115.463 48.29 117.227 48.664 118.778 49.427C120.329 50.216 121.105 51.619 121.105 53.666C121.105 56.754 120.102 58.895 118.109 60.07C116.103 61.247 113.804 61.849 111.209 61.849H77.4191L57.5091 83.871H106.877C112.667 83.871 115.554 85.809 115.554 89.714C115.554 92.388 114.658 94.433 112.853 95.877C111.077 97.322 108.283 98.0461 104.485 98.0461Z" fill="currentColor"/>
<path d="M194.716 61.995C194.716 73.763 192.095 84.713 186.867 94.891C181.639 105.027 174.513 113.891 165.5 121.42C156.461 128.973 145.951 134.911 133.97 139.271C121.962 143.629 109.192 145.794 95.6341 145.794H0.829102L20.0871 124.52H99.8321C109.419 124.52 117.215 123.533 123.206 121.541C129.196 119.521 133.903 116.913 137.366 113.664C140.803 110.441 143.143 106.79 144.399 102.739C145.642 98.676 146.257 94.542 146.257 90.344C146.257 85.304 145.095 81.185 142.755 78.015C140.415 74.818 137.432 72.667 133.836 71.544C136.042 70.821 138.195 69.765 140.28 68.388C142.38 66.997 144.279 65.219 145.963 63.066C147.675 60.926 149.052 58.4 150.081 55.525C151.151 52.649 151.659 49.346 151.659 45.657C151.659 37.647 148.584 31.63 142.447 27.564C136.309 23.512 127.792 21.481 116.908 21.481H22.3041L41.5171 0.207031H120.623C131.776 0.207031 141.884 1.74503 151.004 4.76703C160.096 7.81603 167.892 12.068 174.39 17.524C180.863 22.952 185.877 29.451 189.407 36.979C192.952 44.533 194.716 52.89 194.716 61.995Z" fill="currentColor"/>
<path d="M212.584 107.127V96.4288H251.327C254.645 96.4288 257.354 95.7548 259.457 94.4068C261.559 93.0588 262.61 91.0378 262.61 88.3418C262.61 85.8158 261.835 83.8778 260.287 82.5288C258.738 81.1808 256.471 80.5078 253.484 80.5078H226.854V71.4938H252.738C255.725 71.4938 257.936 70.9328 259.375 69.8088C260.813 68.6858 261.532 66.7758 261.532 64.0798C261.532 61.2158 260.591 59.2358 258.711 58.1408C256.83 57.0458 254.148 56.4978 250.664 56.4978H212.833V45.8838H252.737C255.668 45.8838 258.322 46.2208 260.701 46.8948C263.078 47.5688 265.125 48.5658 266.84 49.8848C268.553 51.2048 269.868 52.8628 270.78 54.8548C271.693 56.8488 272.149 59.1378 272.149 61.7208C272.149 65.5958 271.332 68.5588 269.702 70.6088C268.07 72.6588 266.12 74.0488 263.853 74.7778C266.618 75.6768 268.885 77.3048 270.656 79.6638C272.426 82.0228 273.311 85.0008 273.311 88.5938C273.311 91.4038 272.855 93.9438 271.942 96.2178C271.029 98.4918 269.729 100.43 268.043 102.031C266.355 103.632 264.31 104.883 261.904 105.78C259.498 106.678 256.829 107.128 253.898 107.128L212.584 107.127Z" fill="currentColor"/>
<path d="M282.603 107.127V45.8838H317.53C321.788 45.8838 325.715 46.6138 329.31 48.0738C332.905 49.5348 336.001 51.5848 338.602 54.2228C341.202 56.8638 343.233 60.0228 344.7 63.7008C346.165 67.3798 346.899 71.4378 346.899 75.8738C346.899 80.3108 346.165 84.4378 344.7 88.2568C343.233 92.0768 341.202 95.3748 338.602 98.1548C336.002 100.935 332.905 103.126 329.31 104.726C325.714 106.327 321.788 107.126 317.53 107.126H282.603V107.127ZM317.529 96.4288C320.238 96.4288 322.741 95.9228 325.037 94.9118C327.331 93.9008 329.322 92.5108 331.01 90.7418C332.697 88.9718 334.01 86.8528 334.95 84.3818C335.89 81.9108 336.361 79.2428 336.361 76.3788C336.361 73.5148 335.89 70.8608 334.95 68.4188C334.009 65.9758 332.696 63.8838 331.01 62.1428C329.322 60.4028 327.331 59.0398 325.037 58.0568C322.741 57.0748 320.238 56.5828 317.529 56.5828H293.055V96.4288H317.529Z" fill="currentColor"/>
<path d="M410.363 107.127L401.32 91.711H372.781L377.76 83.034H396.26L382.821 60.12L355.444 107.126H343.415L378.093 48.495C378.7 47.429 379.421 46.586 380.249 45.968C381.079 45.351 382.075 45.041 383.235 45.041C384.397 45.041 385.378 45.351 386.18 45.968C386.981 46.587 387.688 47.429 388.295 48.495L423.057 107.126H410.363V107.127Z" fill="currentColor"/>
<path d="M433.594 107.127C431.989 107.127 430.592 106.664 429.405 105.737C428.214 104.81 427.62 103.449 427.62 101.651C427.62 100.08 428.339 98.5628 429.778 97.1018L469.848 56.0768H428.368V45.8838H481.13C482.679 45.8838 484.062 46.3468 485.278 47.2738C486.494 48.2008 487.104 49.5628 487.104 51.3598C487.104 52.9328 486.383 54.4488 484.946 55.9088L444.876 96.9338H486.855V107.127H433.594Z" fill="currentColor"/>
<path d="M500.127 107.127C498.522 107.127 497.125 106.664 495.938 105.737C494.747 104.81 494.153 103.449 494.153 101.651C494.153 100.08 494.872 98.5628 496.311 97.1018L536.381 56.0768H494.9V45.8838H547.662C549.211 45.8838 550.594 46.3468 551.81 47.2738C553.026 48.2008 553.636 49.5628 553.636 51.3598C553.636 52.9328 552.915 54.4488 551.478 55.9088L511.408 96.9338H553.387V107.127H500.127Z" fill="currentColor"/>
<path d="M562.594 107.127V45.8838H573.131V96.4278H613.697V107.126H562.594V107.127Z" fill="currentColor"/>
<path d="M621.246 107.127V45.8838H675.088V56.5818H631.699V96.4278H675.172V107.126H621.246V107.127ZM639.414 80.5068V71.4928H672.848V80.5068H639.414Z" fill="currentColor"/>
</svg>
