<?xml version="1.0" encoding="utf-8"?>
<!-- Generator: Adobe Illustrator 16.0.0, SVG Export Plug-In . SVG Version: 6.00 Build 0)  -->
<!DOCTYPE svg PUBLIC "-//W3C//DTD SVG 1.1//EN" "http://www.w3.org/Graphics/SVG/1.1/DTD/svg11.dtd">
<svg version="1.1" id="Layer_1" xmlns="http://www.w3.org/2000/svg" xmlns:xlink="http://www.w3.org/1999/xlink" x="0px" y="0px"
	 width="1000px" height="1000px" viewBox="0 0 1000 1000" enable-background="new 0 0 1000 1000" xml:space="preserve">
<rect width="1000" height="1000"/>
<g>
	<g>
		<g>
			<path fill="#FFFFFF" d="M209.544,644.384v-13.435h48.654c4.167,0,7.568-0.848,10.209-2.539c2.638-1.694,3.958-4.231,3.958-7.617
				c0-3.175-0.972-5.606-2.917-7.301c-1.945-1.692-4.792-2.538-8.542-2.538h-33.442v-11.319h32.504c3.75,0,6.529-0.704,8.335-2.115
				c1.804-1.41,2.707-3.809,2.707-7.194c0-3.596-1.18-6.083-3.542-7.458c-2.361-1.374-5.729-2.063-10.104-2.063h-47.507v-13.329
				h50.111c3.68,0,7.014,0.424,10.001,1.27c2.986,0.847,5.556,2.101,7.709,3.756c2.153,1.658,3.803,3.738,4.949,6.241
				c1.146,2.505,1.719,5.379,1.719,8.622c0,4.867-1.025,8.587-3.074,11.161c-2.048,2.575-4.496,4.32-7.345,5.236
				c3.473,1.13,6.32,3.174,8.544,6.135c2.222,2.962,3.334,6.703,3.334,11.214c0,3.528-0.572,6.719-1.719,9.575
				c-1.146,2.857-2.78,5.289-4.897,7.3c-2.12,2.01-4.688,3.578-7.71,4.707c-3.021,1.128-6.373,1.692-10.054,1.692H209.544z"/>
			<path fill="#FFFFFF" d="M297.475,644.384v-76.909h43.86c5.346,0,10.277,0.918,14.793,2.75c4.515,1.836,8.402,4.408,11.669,7.723
				c3.264,3.317,5.816,7.284,7.657,11.901c1.84,4.62,2.762,9.717,2.762,15.287c0,5.573-0.921,10.756-2.762,15.551
				c-1.84,4.798-4.393,8.94-7.657,12.43c-3.267,3.491-7.154,6.242-11.669,8.252c-4.516,2.011-9.447,3.016-14.793,3.016H297.475z
				 M341.335,630.949c3.401,0,6.545-0.636,9.428-1.905c2.881-1.27,5.382-3.016,7.5-5.237c2.119-2.22,3.768-4.882,4.949-7.985
				c1.18-3.103,1.771-6.452,1.771-10.051c0-3.597-0.591-6.928-1.771-9.996c-1.181-3.068-2.83-5.694-4.949-7.882
				c-2.119-2.187-4.62-3.896-7.5-5.131c-2.883-1.233-6.026-1.851-9.428-1.851h-30.733v50.038H341.335z"/>
			<path fill="#FFFFFF" d="M457.915,644.384l-11.355-19.36h-35.838l6.251-10.895h23.231l-16.877-28.775l-34.379,59.03h-15.108
				l43.549-73.629c0.762-1.34,1.667-2.396,2.709-3.174c1.041-0.774,2.291-1.163,3.75-1.163c1.458,0,2.691,0.389,3.698,1.163
				c1.006,0.777,1.892,1.834,2.656,3.174l43.652,73.629H457.915z"/>
			<path fill="#FFFFFF" d="M487.086,644.384c-2.015,0-3.768-0.583-5.262-1.745c-1.494-1.164-2.24-2.872-2.24-5.131
				c0-1.975,0.902-3.878,2.708-5.714l50.32-51.518h-52.091v-12.802h66.258c1.945,0,3.68,0.583,5.209,1.746
				c1.528,1.164,2.292,2.874,2.292,5.131c0,1.976-0.902,3.88-2.708,5.713l-50.318,51.519h52.716v12.801H487.086z"/>
			<path fill="#FFFFFF" d="M570.637,644.384c-2.013,0-3.768-0.583-5.26-1.745c-1.495-1.164-2.24-2.872-2.24-5.131
				c0-1.975,0.902-3.878,2.709-5.714l50.319-51.518h-52.091v-12.802h66.259c1.946,0,3.68,0.583,5.208,1.746
				c1.529,1.164,2.293,2.874,2.293,5.131c0,1.976-0.901,3.88-2.708,5.713l-50.32,51.519h52.716v12.801H570.637z"/>
			<path fill="#FFFFFF" d="M649.083,644.384v-76.909h13.23v63.475h50.946v13.435H649.083z"/>
			<path fill="#FFFFFF" d="M722.74,644.384v-76.909h67.614v13.437h-54.487v50.038h54.589v13.435H722.74z M745.555,610.954v-11.319
				h41.984v11.319H745.555z"/>
		</g>
	</g>
	<g>
		<path fill="#FFFFFF" d="M508.433,478.482H388.62l56.652-62.483h74.426c2.519,0,4.734,0.472,6.684,1.43
			c1.948,0.989,2.923,2.752,2.923,5.322c0,3.879-1.261,6.565-3.764,8.044c-2.519,1.477-5.407,2.232-8.663,2.232h-42.433
			l-25.005,27.655h61.996c7.271,0,10.898,2.436,10.898,7.34c0,3.357-1.126,5.925-3.392,7.739
			C516.71,477.575,513.201,478.482,508.433,478.482z"/>
		<path fill="#FFFFFF" d="M621.741,433.212c0,14.776-3.29,28.529-9.854,41.308c-6.567,12.729-15.518,23.861-26.836,33.315
			c-11.351,9.486-24.547,16.943-39.595,22.416c-15.08,5.475-31.114,8.194-48.142,8.194H378.259l24.185-26.715h100.144
			c12.039,0,21.828-1.242,29.354-3.744c7.519-2.535,13.433-5.811,17.782-9.89c4.314-4.048,7.253-8.633,8.831-13.722
			c1.561-5.103,2.332-10.293,2.332-15.564c0-6.33-1.459-11.502-4.397-15.482c-2.938-4.014-6.685-6.717-11.2-8.127
			c2.771-0.906,5.473-2.232,8.094-3.962c2.637-1.748,5.021-3.98,7.137-6.685c2.147-2.688,3.88-5.859,5.172-9.47
			c1.341-3.611,1.981-7.759,1.981-12.394c0-10.058-3.864-17.614-11.571-22.72c-7.707-5.087-18.402-7.64-32.072-7.64H405.228
			l24.128-26.716h99.34c14.008,0,26.701,1.933,38.153,5.727c11.42,3.83,21.209,9.169,29.369,16.02
			c8.127,6.816,14.424,14.979,18.857,24.431C619.527,411.281,621.741,421.777,621.741,433.212z"/>
	</g>
</g>
</svg>
